Sprint_04500001_forces_filt100Hz.mot
version=1
nRows=48
nColumns=19
inDegrees=yes
endheader
time	R_ground_force_vx	R_ground_force_vy	R_ground_force_vz	R_ground_force_px	R_ground_force_py	R_ground_force_pz	R_ground_torque_x	R_ground_torque_y	R_ground_torque_z	L_ground_force_vx	L_ground_force_vy	L_ground_force_vz	L_ground_force_px	L_ground_force_py	L_ground_force_pz	L_ground_torque_x	L_ground_torque_y	L_ground_torque_z	
1.962000	465.705563	960.529644	-160.238681	  0.385716	  0.000000	 -0.238866	  0.000000	117.409279	  0.000000	  0.000000	  0.000000	  0.000000	  0.743557	  0.000000	 -0.347584	  0.000000	  0.000000	  0.000000
1.962500	472.100561	920.626887	-160.145903	  0.353785	  0.000000	 -0.238275	  0.000000	119.112154	  0.000000	  0.000000	  0.000000	  0.000000	  0.746453	  0.000000	 -0.347386	  0.000000	  0.000000	  0.000000
1.963000	478.358574	880.328704	-159.240831	  0.318617	  0.000000	 -0.237790	  0.000000	119.890971	  0.000000	  0.000000	  0.000000	  0.000000	  0.749349	  0.000000	 -0.347189	  0.000000	  0.000000	  0.000000
1.963500	484.456270	840.436801	-157.284815	  0.280726	  0.000000	 -0.237512	  0.000000	119.426770	  0.000000	  0.000000	  0.000000	  0.000000	  0.752245	  0.000000	 -0.346992	  0.000000	  0.000000	  0.000000
1.964000	490.307164	801.705819	-154.009024	  0.240863	  0.000000	 -0.237523	  0.000000	117.323422	  0.000000	  0.000000	  0.000000	  0.000000	  0.755141	  0.000000	 -0.346794	  0.000000	  0.000000	  0.000000
1.964500	495.759996	764.788005	-149.134424	  0.199998	  0.000000	 -0.237864	  0.000000	113.128575	  0.000000	  0.000000	  0.000000	  0.000000	  0.758037	  0.000000	 -0.346597	  0.000000	  0.000000	  0.000000
1.965000	500.611924	730.220833	-142.393814	  0.159313	  0.000000	 -0.238515	  0.000000	106.364098	  0.000000	  0.000000	  0.000000	  0.000000	  0.760934	  0.000000	 -0.346400	  0.000000	  0.000000	  0.000000
1.965500	504.628082	698.465577	-133.552377	  0.120246	  0.000000	 -0.239378	  0.000000	 96.559076	  0.000000	  0.000000	  0.000000	  0.000000	  0.763850	  0.000000	 -0.346226	  0.000000	  0.000000	  0.000000
1.966000	507.561979	669.971936	-122.426544	  0.084587	  0.000000	 -0.240269	  0.000000	 83.292412	  0.000000	  0.000000	  0.000000	  0.000000	  0.766767	  0.000000	 -0.346052	  0.000000	  0.000000	  0.000000
1.966500	509.173710	645.220371	-108.902731	  0.054537	  0.000000	 -0.240940	  0.000000	 66.264427	  0.000000	  0.000000	  0.000000	  0.000000	  0.769683	  0.000000	 -0.345878	  0.000000	  0.000000	  0.000000
1.967000	509.245646	624.711029	-92.952363	  0.032613	  0.000000	 -0.241110	  0.000000	 45.405431	  0.000000	  0.000000	  0.000000	  0.000000	  0.772600	  0.000000	 -0.345704	  0.000000	  0.000000	  0.000000
1.967500	507.596570	608.887474	-74.636440	  0.021290	  0.000000	 -0.240521	  0.000000	 21.001824	  0.000000	  0.000000	  0.000000	  0.000000	  0.775516	  0.000000	 -0.345530	  0.000000	  0.000000	  0.000000
1.968000	504.092573	598.017622	-54.099567	  0.022426	  0.000000	 -0.238983	  0.000000	 -6.213064	  0.000000	  0.000000	  0.000000	  0.000000	  0.778433	  0.000000	 -0.345357	  0.000000	  0.000000	  0.000000
1.968500	498.651507	592.080816	-31.558635	  0.036669	  0.000000	 -0.236424	  0.000000	-35.070444	  0.000000	  0.000000	  0.000000	  0.000000	  0.781349	  0.000000	 -0.345183	  0.000000	  0.000000	  0.000000
1.969000	491.240461	590.701310	 -7.292411	  0.063133	  0.000000	 -0.232909	  0.000000	-64.111935	  0.000000	  0.000000	  0.000000	  0.000000	  0.784266	  0.000000	 -0.345009	  0.000000	  0.000000	  0.000000
1.969500	481.868402	593.157981	 18.361007	  0.099552	  0.000000	 -0.228621	  0.000000	-91.831213	  0.000000	  0.000000	  0.000000	  0.000000	  0.787182	  0.000000	 -0.344835	  0.000000	  0.000000	  0.000000
1.970000	470.579374	598.470069	 44.999793	  0.142835	  0.000000	 -0.223822	  0.000000	-116.918664	  0.000000	  0.000000	  0.000000	  0.000000	  0.790099	  0.000000	 -0.344661	  0.000000	  0.000000	  0.000000
1.970500	457.452678	605.531986	 72.155244	  0.189768	  0.000000	 -0.218796	  0.000000	-138.422300	  0.000000	  0.000000	  0.000000	  0.000000	  0.793016	  0.000000	 -0.344471	  0.000000	  0.000000	  0.000000
1.971000	442.609075	613.259074	 99.296361	  0.237583	  0.000000	 -0.213804	  0.000000	-155.790900	  0.000000	  0.000000	  0.000000	  0.000000	  0.795933	  0.000000	 -0.344280	  0.000000	  0.000000	  0.000000
1.971500	426.216550	620.699628	125.846153	  0.284222	  0.000000	 -0.209057	  0.000000	-168.825087	  0.000000	  0.000000	  0.000000	  0.000000	  0.798850	  0.000000	 -0.344089	  0.000000	  0.000000	  0.000000
1.972000	408.490663	627.094553	151.209927	  0.328351	  0.000000	 -0.204710	  0.000000	-177.590363	  0.000000	  0.000000	  0.000000	  0.000000	  0.801767	  0.000000	 -0.343898	  0.000000	  0.000000	  0.000000
1.972500	389.686308	631.890185	174.812110	  0.369210	  0.000000	 -0.200867	  0.000000	-182.335787	  0.000000	  0.000000	  0.000000	  0.000000	  0.804684	  0.000000	 -0.343707	  0.000000	  0.000000	  0.000000
1.973000	370.081809	634.722210	196.135460	  0.406427	  0.000000	 -0.197591	  0.000000	-183.434400	  0.000000	  0.000000	  0.000000	  0.000000	  0.807602	  0.000000	 -0.343516	  0.000000	  0.000000	  0.000000
1.973500	349.959702	635.394772	214.754916	  0.439871	  0.000000	 -0.194907	  0.000000	-181.339749	  0.000000	  0.000000	  0.000000	  0.000000	  0.810519	  0.000000	 -0.343326	  0.000000	  0.000000	  0.000000
1.974000	329.588345	633.860255	230.360854	  0.469559	  0.000000	 -0.192813	  0.000000	-176.548740	  0.000000	  0.000000	  0.000000	  0.000000	  0.813436	  0.000000	 -0.343135	  0.000000	  0.000000	  0.000000
1.974500	309.208183	630.190584	242.768719	  0.495607	  0.000000	 -0.191285	  0.000000	-169.565252	  0.000000	  0.000000	  0.000000	  0.000000	  0.816353	  0.000000	 -0.342944	  0.000000	  0.000000	  0.000000
1.975000	289.024072	624.534827	251.915305	  0.518196	  0.000000	 -0.190282	  0.000000	-160.868866	  0.000000	  0.000000	  0.000000	  0.000000	  0.819270	  0.000000	 -0.342753	  0.000000	  0.000000	  0.000000
1.975500	269.202759	617.064683	257.844439	  0.537533	  0.000000	 -0.189754	  0.000000	-150.899394	  0.000000	  0.000000	  0.000000	  0.000000	  0.822180	  0.000000	 -0.342568	  0.000000	  0.000000	  0.000000
1.976000	249.874394	607.924783	260.685155	  0.553798	  0.000000	 -0.189643	  0.000000	-140.059221	  0.000000	  0.000000	  0.000000	  0.000000	  0.825089	  0.000000	 -0.342382	  0.000000	  0.000000	  0.000000
1.976500	231.137190	597.212604	260.626221	  0.567101	  0.000000	 -0.189890	  0.000000	-128.725274	  0.000000	  0.000000	  0.000000	  0.000000	  0.827999	  0.000000	 -0.342197	  0.000000	  0.000000	  0.000000
1.977000	213.064917	584.989818	257.891259	  0.577472	  0.000000	 -0.190435	  0.000000	-117.257655	  0.000000	  0.000000	  0.000000	  0.000000	  0.830908	  0.000000	 -0.342011	  0.000000	  0.000000	  0.000000
1.977500	195.717348	571.308015	252.718588	  0.584876	  0.000000	 -0.191223	  0.000000	-105.992312	  0.000000	  0.000000	  0.000000	  0.000000	  0.833818	  0.000000	 -0.341826	  0.000000	  0.000000	  0.000000
1.978000	179.153492	556.226353	245.346954	  0.589257	  0.000000	 -0.192206	  0.000000	-95.217225	  0.000000	  0.000000	  0.000000	  0.000000	  0.836728	  0.000000	 -0.341641	  0.000000	  0.000000	  0.000000
1.978500	163.446124	539.798559	236.006354	  0.590570	  0.000000	 -0.193344	  0.000000	-85.141191	  0.000000	  0.000000	  0.000000	  0.000000	  0.839637	  0.000000	 -0.341455	  0.000000	  0.000000	  0.000000
1.979000	148.693544	522.033162	224.912605	  0.588803	  0.000000	 -0.194601	  0.000000	-75.866711	  0.000000	  0.000000	  0.000000	  0.000000	  0.842547	  0.000000	 -0.341270	  0.000000	  0.000000	  0.000000
1.979500	135.023163	502.851767	212.263231	  0.583964	  0.000000	 -0.195945	  0.000000	-67.379071	  0.000000	  0.000000	  0.000000	  0.000000	  0.845456	  0.000000	 -0.341084	  0.000000	  0.000000	  0.000000
1.980000	122.584189	482.066493	198.232652	  0.576056	  0.000000	 -0.197358	  0.000000	-59.555512	  0.000000	  0.000000	  0.000000	  0.000000	  0.848366	  0.000000	 -0.340899	  0.000000	  0.000000	  0.000000
1.980500	111.530168	459.392085	182.966070	  0.565044	  0.000000	 -0.198844	  0.000000	-52.189574	  0.000000	  0.000000	  0.000000	  0.000000	  0.851310	  0.000000	 -0.340741	  0.000000	  0.000000	  0.000000
1.981000	101.998239	434.490386	166.573813	  0.550851	  0.000000	 -0.200446	  0.000000	-45.019988	  0.000000	  0.000000	  0.000000	  0.000000	  0.854254	  0.000000	 -0.340582	  0.000000	  0.000000	  0.000000
1.981500	 94.095302	407.028325	149.129424	  0.533395	  0.000000	 -0.202254	  0.000000	-37.752493	  0.000000	  0.000000	  0.000000	  0.000000	  0.857198	  0.000000	 -0.340424	  0.000000	  0.000000	  0.000000
1.982000	 87.895614	376.732387	130.674883	  0.512689	  0.000000	 -0.204405	  0.000000	-30.073735	  0.000000	  0.000000	  0.000000	  0.000000	  0.860142	  0.000000	 -0.340266	  0.000000	  0.000000	  0.000000
1.982500	 83.448826	343.434575	111.236733	  0.488946	  0.000000	 -0.207072	  0.000000	-21.665294	  0.000000	  0.000000	  0.000000	  0.000000	  0.863085	  0.000000	 -0.340108	  0.000000	  0.000000	  0.000000
1.983000	 80.790345	307.126292	 90.851912	  0.462659	  0.000000	 -0.210433	  0.000000	-12.226717	  0.000000	  0.000000	  0.000000	  0.000000	  0.866029	  0.000000	 -0.339949	  0.000000	  0.000000	  0.000000
1.983500	 79.941521	268.047401	 69.596614	  0.434601	  0.000000	 -0.214633	  0.000000	 -1.512362	  0.000000	  0.000000	  0.000000	  0.000000	  0.868973	  0.000000	 -0.339791	  0.000000	  0.000000	  0.000000
1.984000	 80.895695	226.833864	 47.610287	  0.427066	 -0.000000	 -0.215164	  0.000000	 10.623609	  0.000000	  0.000000	  0.000000	  0.000000	  0.871917	  0.000000	 -0.339633	  0.000000	  0.000000	  0.000000
1.984500	 83.594725	184.735139	 25.106805	  0.419531	 -0.000000	 -0.215696	  0.000000	 24.187874	  0.000000	  0.000000	  0.000000	  0.000000	  0.874861	  0.000000	 -0.339474	  0.000000	  0.000000	  0.000000
1.985000	 87.907922	143.703805	  2.370219	  0.411996	 -0.000000	 -0.216228	  0.000000	 39.025721	  0.000000	  0.000000	  0.000000	  0.000000	  0.877805	  0.000000	 -0.339316	  0.000000	  0.000000	  0.000000
1.985500	 93.628338	105.967100	-20.262201	  0.404461	 -0.000000	 -0.216760	  0.000000	 54.817770	  0.000000	  0.000000	  0.000000	  0.000000	  0.880739	  0.000000	 -0.339276	  0.000000	  0.000000	  0.000000
